<?xml version="1.0" encoding="UTF-8" standalone="no"?>
<!-- Created with Inkscape (http://www.inkscape.org/) -->

<svg
   width="47.812588mm"
   height="48.000179mm"
   viewBox="0 0 47.812588 48.00018"
   version="1.1"
   id="svg1"
   xml:space="preserve"
   xmlns:xlink="http://www.w3.org/1999/xlink"
   xmlns="http://www.w3.org/2000/svg"
   xmlns:svg="http://www.w3.org/2000/svg"><defs
     id="defs1"><clipPath
       clipPathUnits="userSpaceOnUse"
       id="clipPath11"><use
         x="0"
         y="0"
         xlink:href="#g10"
         id="use11" /></clipPath></defs><g
     id="layer1"
     transform="translate(-44.68332,-125.09489)"><g
       id="g12"><path
         d="m 52.080801,125.09489 c -4.098074,0 -7.397481,3.29941 -7.397481,7.39749 v 33.2052 c 0,4.09808 3.299407,7.39749 7.397481,7.39749 h 4.60282 v -48.00018 z"
         style="fill:#7ebdc2;stroke-width:0.280633"
         id="path9" /><path
         d="m 80.68319,125.09489 v 48.00018 h 4.415234 c 4.098074,0 7.397482,-3.29941 7.397482,-7.39749 v -33.2052 c 0,-4.09808 -3.299408,-7.39749 -7.397482,-7.39749 z"
         style="fill:#bb4430;stroke-width:0.280633"
         id="path8" /><path
         d="m 56.683621,125.09489 v 48.00018 H 80.68319 v -48.00018 z"
         style="fill:#231f20;stroke-width:0.280633"
         id="path7" /><g
         id="g11"
         clip-path="url(#clipPath11)"><g
           id="g10"><path
             d="m -7.4086324,179.08526 q -3.2003996,0 -5.8419996,-1.1684 -2.6416,-1.1684 -4.572,-3.2512 -1.8796,-2.1336 -2.8448,-4.9784 -0.9652,-2.8956 -0.762,-6.35 0.1524,-3.4544 1.3716,-6.6548 1.2192,-3.2004 3.302,-5.7404 2.1336,-2.54 4.9784,-4.0132 2.8955997,-1.524 6.3499996,-1.524 2.5908,0 5.23239994,0.5588 2.64159996,0.508 4.97839996,1.778 2.3875999,1.2192 4.2163999,3.2512 1.8795996,2.032 2.8447996,5.0292 0.9652,2.9464 0.762,6.9596 -0.1524,3.2512 -1.4732,5.842 -1.2699996,2.54 -3.3527996,4.4704 -2.032,1.9304 -4.6227999,3.2512 -2.53999998,1.27 -5.2831999,1.9304 -2.6924,0.6096 -5.2832,0.6096 z m 7.16279994,6.4008 q -1.21919994,0.3048 -2.13359994,0.0508 -0.9144,-0.2032 -1.5748,-0.7112 -0.6096,-0.4572 -0.9652,-0.8636 -0.3048,-0.4064 -0.3048,-0.4064 -1.1176,-2.9972 -1.8796,-5.334 -0.7619999,-2.3876 -1.3207999,-4.572 -0.508,-2.2352 -0.9144,-4.6228 0,0 0,-0.4064 0.0508,-0.4572 0.2032,-1.016 0.2032,-0.5588 0.6604,-1.016 0.4572,-0.4572 1.2191999,-0.5588 1.1176,-0.1016 1.8288,0.3048 0.762,0.4064 1.1684,0.8636 0.4572,0.4064 0.4572,0.4064 0.6604,1.3716 1.6764,3.6068 1.016,2.1844 2.13359993,4.9276 1.11759997,2.6924 2.13359997,5.6388 0,0 0.0508,0.4572 0.1016,0.4572 -0.0508,1.1176 -0.1016,0.6604 -0.6604,1.2192 -0.50799998,0.6096 -1.72719996,0.9144 z m -5.63879994,-13.97 q 1.3208,0 2.6924,-0.3556 1.3716,-0.3556 2.64159994,-1.1176 1.26999998,-0.762 2.28599996,-1.8796 1.016,-1.1684 1.6764,-2.6924 0.6604,-1.5748 0.7112,-3.5052 0.1524,-2.5908 -0.5588,-4.3688 -0.7112,-1.778 -1.9812,-2.8448 -1.26999997,-1.1176 -2.8955999,-1.5748 -1.6256,-0.508 -3.302,-0.508 -1.6256,0 -3.0988,0.8128 -1.4731999,0.762 -2.6415996,2.1844 -1.1176,1.3716 -1.8288,3.2512 -0.6604,1.8288 -0.762,3.8608 -0.1524,2.7432 0.7112,4.7244 0.8636,1.9304 2.4891997,2.9972 1.6256,1.016 3.8607999,1.016 z"
             id="text4"
             style="font-weight:bold;font-size:50.8px;font-family:'Sour Gummy';-inkscape-font-specification:'Sour Gummy Bold';fill:#ffffff;stroke-width:0.396875"
             transform="rotate(-26.276636)"
             aria-label="Q" /></g></g></g></g></svg>
